<svg width="289" height="53" viewBox="0 0 289 53" fill="none" xmlns="http://www.w3.org/2000/svg" style="background-color:black">
<path d="M55.2583 13.1079C58.3285 12.7211 61.5116 13.3829 64.1774 14.9487C67.5499 16.9035 70.0649 20.1989 71.221 23.899C72.5014 27.9517 72.1999 32.4895 70.3429 36.3185C68.7538 39.6332 65.9887 42.4029 62.5898 43.8519C59.5889 45.1491 56.1321 45.3571 52.9997 44.4246C49.7816 43.4864 46.9572 41.3742 45.0344 38.6501C42.7723 35.4786 41.7363 31.4929 42.0571 27.6226C42.3565 23.7066 44.0806 19.8962 46.9165 17.1564C49.165 14.963 52.1273 13.4848 55.2583 13.1079ZM55.4097 21.1635C53.7921 21.5311 52.3252 22.4671 51.2713 23.7387C49.9195 25.3494 49.2521 27.4929 49.39 29.5852C49.5208 31.9225 50.6869 34.1985 52.571 35.6111C54.1487 36.8243 56.2329 37.3614 58.2042 37.038C60.2619 36.7239 62.1296 35.4793 63.29 33.7647C64.5118 31.9937 64.9776 29.7419 64.614 27.6283C64.236 25.3295 62.8363 23.2002 60.8157 22.0133C59.2116 21.0516 57.2332 20.7439 55.4097 21.1635Z" fill="white"/>
<g filter="url(#filter0_d_4_71)">
<path d="M4 14.0039C5.14268 13.9995 6.28611 13.9974 7.42878 14.0054C12.1351 19.5443 16.8422 25.0833 21.5515 30.6207C26.2676 25.2252 30.9694 19.8196 35.6885 14.427C36.7922 14.4299 37.8952 14.427 38.9989 14.4299C39.0004 24.6194 39.0004 34.809 38.9989 44.9978C36.0182 45.0007 33.0382 45.0007 30.0598 44.9978C30.0583 41.4933 30.0598 37.988 30.0583 34.4842C27.2192 37.4478 24.3913 40.42 21.5538 43.3857C18.7919 40.3516 16.0382 37.3087 13.2763 34.2753C13.2748 37.8126 13.2778 41.3491 13.2748 44.8879C10.1839 44.8886 7.09234 44.8922 4.0015 44.8857C4 34.5913 4 24.2983 4 14.0039Z" fill="white"/>
</g>
<path d="M75.0008 14.0029C76.0658 13.9985 77.13 14.0029 78.195 14C83.3428 18.4945 88.4787 23.0029 93.625 27.4988C93.628 23.0337 93.6235 18.57 93.6265 14.1056C96.4177 14.11 99.2111 14.0858 102 14.118C101.993 24.3732 101.999 34.6299 101.997 44.8843C101.079 44.8909 100.162 44.8858 99.2425 44.8872C93.8785 40.2146 88.525 35.5295 83.1589 30.8561C83.1589 35.5691 83.1566 40.2835 83.1604 44.9965C80.4395 45.0024 77.7209 44.9994 75 44.9979C75.0007 34.6673 75.0008 24.3351 75.0008 14.0029Z" fill="white"/>
<path d="M105.002 15.0004C113 15.0004 121 14.9989 129 15.0018C128.999 17.3977 129.002 19.7921 128.997 22.188C126.427 22.1909 123.857 22.1866 121.288 22.1894C121.286 29.7922 121.288 37.3949 121.286 44.9976C118.465 45.0005 115.644 45.0005 112.823 44.9991C112.818 37.4293 112.824 29.8603 112.82 22.2905C110.213 22.2877 107.608 22.2905 105.002 22.2891C104.999 19.8595 104.999 17.4292 105.002 15.0004Z" fill="white"/>
<path d="M254.144 14.2058C257.609 13.8068 261.124 14.0321 264.567 14.5048C264.309 16.7337 264.051 18.9619 263.785 21.1894C262.131 20.8591 260.441 20.6798 258.749 20.6784C256.604 20.6642 254.51 21.3694 252.704 22.4204C250.846 23.5196 249.332 25.2247 248.841 27.2602C248.246 29.7307 248.774 32.4876 250.482 34.484C252.098 36.3579 254.483 37.5811 256.976 38.0822C259.6 38.467 262.276 38.265 264.903 37.9985C264.934 40.1672 265.088 42.3408 264.929 44.5059C261.679 44.9708 258.367 45.1565 255.09 44.8489C253.079 44.6186 251.03 44.2146 249.279 43.221C246.803 42.0523 244.597 40.3628 242.929 38.2863C241.159 36.0829 240.119 33.3735 240.015 30.6152C239.911 27.7237 240.326 24.7414 241.74 22.1362C242.663 20.4155 244.058 18.9442 245.683 17.7769C246.866 16.9194 248.171 16.2277 249.458 15.5211C250.886 14.7451 252.524 14.4077 254.144 14.2058Z" fill="white"/>
<path d="M159.053 14.004C161.819 13.9975 164.585 14.0004 167.35 14.0026C167.352 21.8685 167.349 29.7344 167.352 37.6018C169.568 37.6178 171.786 37.5757 174 37.6228C173.975 40.0816 173.999 42.5381 173.989 44.9983C168.992 45.002 163.996 44.9983 159 44.9998C159.006 34.6671 159.044 24.3359 159.053 14.004Z" fill="white"/>
<path d="M190.407 14.0024C191.817 13.998 193.226 14.001 194.636 14.001C199.096 24.325 203.545 34.6535 208 44.9783C204.751 44.9703 201.503 44.9617 198.253 44.9602C196.36 40.5337 194.482 36.1008 192.591 31.6743C190.495 36.1109 188.39 40.5417 186.292 44.9761C183.194 44.987 180.097 44.9928 177 45C181.467 34.6651 185.939 24.3344 190.407 14.0024Z" fill="white"/>
<path d="M132.001 14.0033C137.343 14.0018 142.687 13.9953 148.029 14.0062C150.395 14.1721 152.817 15.2741 154.089 17.288C155.296 19.2018 155.388 21.5826 154.995 23.7404C154.618 25.864 153.291 27.9722 151.142 28.7482C153.344 29.3957 155.09 31.2262 155.668 33.3841C156.175 35.2775 156.092 37.3199 155.482 39.1811C154.823 41.1855 153.266 42.8509 151.341 43.7826C149.919 44.4797 148.35 44.9145 146.757 44.9978C141.838 45.0007 136.92 45.0007 132.001 44.9978C132 34.6665 132 24.3346 132.001 14.0033ZM140.718 19.5131C140.723 21.6008 140.736 23.6893 140.737 25.777C142.22 25.7982 143.703 25.8253 145.187 25.8428C146.205 25.8552 147.266 25.3247 147.666 24.3784C148.078 23.397 148.068 22.2476 147.672 21.2632C147.257 20.2446 146.151 19.6359 145.057 19.6044C143.612 19.5657 142.165 19.5416 140.718 19.5131ZM140.495 31.767C140.493 33.881 140.493 35.9951 140.495 38.1091C141.959 38.1062 143.423 38.1091 144.886 38.082C146.121 37.9052 147.355 37.1262 147.738 35.9227C148.074 34.8485 147.905 33.5485 147.053 32.7396C146.27 32.0052 145.146 31.7195 144.084 31.7012C142.888 31.7195 141.692 31.7392 140.495 31.767Z" fill="white"/>
<path d="M229.438 20.8034C229.437 18.7365 229.437 16.6696 229.439 14.6027C231.792 14.6016 234.145 14.6017 236.498 14.6039C236.5 22.1244 236.5 29.6448 236.5 37.165C236.5 39.5756 236.5 41.9862 236.5 44.3968C236.148 44.3973 235.797 44.3971 235.446 44.3968C235.146 44.3966 234.846 44.3964 234.545 44.3966C232.052 42.1411 229.555 39.8769 227.058 37.6123C224.435 35.2342 221.812 32.8559 219.194 30.4871L218.359 29.7315L218.358 30.8578C218.358 35.404 218.358 39.9515 218.358 44.4978C216.704 44.501 215.05 44.5 213.395 44.499C212.764 44.4987 212.133 44.4983 211.501 44.4981C211.5 34.4996 211.5 24.5004 211.5 14.5011C212.133 14.4997 212.765 14.4999 213.398 14.5001C213.56 14.5002 213.723 14.5002 213.885 14.5003C216.502 16.8762 219.117 19.2532 221.731 21.6304C224.02 23.7111 226.309 25.792 228.6 27.8725L229.435 28.6308L229.436 27.5029C229.439 25.2714 229.438 23.0395 229.438 20.8078V20.8034V20.8034Z" fill="white" stroke="black"/>
<path d="M279.916 0.0674781C281.629 -0.147663 283.414 0.147595 284.918 1.01152C287.007 2.16958 288.522 4.30754 288.9 6.66849C289.096 7.99911 289.015 9.38633 288.557 10.6564C287.916 12.4891 286.58 14.064 284.88 14.9996C283.328 15.868 281.48 16.1829 279.726 15.8977C277.911 15.612 276.212 14.6707 275.001 13.2897C273.764 11.898 273.04 10.0598 273.003 8.19801C272.951 6.43991 273.505 4.67284 274.551 3.25929C275.812 1.53088 277.79 0.339206 279.916 0.0674781ZM280.613 1.0866C279.892 1.24627 279.378 1.86479 279.09 2.51246C278.876 3.00605 278.469 3.41504 277.967 3.60889C277.232 3.90751 276.423 3.60553 275.673 3.80442C275.015 3.99491 274.538 4.69189 274.644 5.37598C274.796 6.29761 275.537 7.02258 275.565 7.97839C275.622 8.51456 275.274 8.95549 275.054 9.41042C274.786 9.94267 274.576 10.5623 274.748 11.1584C275.007 11.8274 275.753 12.2313 276.456 12.1624C277.193 12.126 278.018 12.112 278.612 12.6252C279.15 13.1687 279.39 13.9407 279.951 14.4674C280.49 14.966 281.389 15.0142 281.973 14.5649C282.701 14.008 282.874 12.9709 283.661 12.4739C284.409 12.0554 285.296 12.3036 286.102 12.168C286.766 12.0812 287.326 11.4677 287.306 10.7898C287.303 10.0166 286.759 9.4121 286.505 8.71625C286.257 8.19409 286.315 7.56659 286.59 7.0674C286.89 6.46176 287.31 5.84604 287.244 5.13955C287.17 4.39552 286.477 3.80556 285.74 3.79155C284.98 3.71984 284.112 3.93497 283.463 3.42345C282.762 2.95675 282.585 2.05977 281.968 1.51856C281.613 1.17848 281.102 0.98687 280.613 1.0866Z" fill="white"/>
<defs>
<filter id="filter0_d_4_71" x="0" y="14" width="43" height="39" filterUnits="userSpaceOnUse" color-interpolation-filters="sRGB">
<feFlood flood-opacity="0" result="BackgroundImageFix"/>
<feColorMatrix in="SourceAlpha" type="matrix" values="0 0 0 0 0 0 0 0 0 0 0 0 0 0 0 0 0 0 127 0" result="hardAlpha"/>
<feOffset dy="4"/>
<feGaussianBlur stdDeviation="2"/>
<feComposite in2="hardAlpha" operator="out"/>
<feColorMatrix type="matrix" values="0 0 0 0 0 0 0 0 0 0 0 0 0 0 0 0 0 0 0.25 0"/>
<feBlend mode="normal" in2="BackgroundImageFix" result="effect1_dropShadow_4_71"/>
<feBlend mode="normal" in="SourceGraphic" in2="effect1_dropShadow_4_71" result="shape"/>
</filter>
</defs>
</svg>
